<?xml version="1.0" encoding="utf-8"?><!-- Uploaded to: SVG Repo, www.svgrepo.com, Generator: SVG Repo Mixer Tools -->
<svg width="800px" height="800px" viewBox="0 0 100 100" xmlns="http://www.w3.org/2000/svg" xmlns:xlink="http://www.w3.org/1999/xlink" aria-hidden="true" role="img" class="iconify iconify--gis" preserveAspectRatio="xMidYMid meet"><path d="M50 0C22.404 0 0 22.404 0 50s22.404 50 50 50c27.546 0 49.911-22.324 49.992-49.852A1.5 1.5 0 0 0 100 50a1.5 1.5 0 0 0-.006-.133C99.922 22.332 77.552 0 50 0zm8.133 3.715a45.3 45.3 0 0 1 2.16.428c.744.632 1.378 1.1 1.492.345C78.807 8.877 92.068 22.557 95.88 39.805c-.754 4.286 1.668 9.599.52 12.896c-.44-1.527-.028-2.514-1.057-1.244c-1.988-3.484-1.707-9.881-5.237-11.277c-.922-3.45-2.77-3.022-6.373-2.319c-5.698-.938 3.37 1.85.715 4.72c-.631 3.07-3.419 5.951-6.285 7.64c-2.031 1.23-7.554 5.551-2.158 3.55c2.027.143 3.62-3.158 4.318.215c-1.128 4.01-2.56 8.157-5.978 10.807c-2.23 1.875-4.533 5.706-5.188 7.05c.633 1.028-.59 3.93.56 4.653c1.952 6.136-6.766 5.61-6.507 10.436c-2.856 2.63-5.653 6.488-10.227 6.78c-5.877 2.406-8.723-3.776-11.18-7.847c-4.435-3.129 1.089-6.92-1.113-10.554c-.843-3.638-6.001-5.565-4.236-9.561c1.691-3.345-4.58-1.954-5.174-5.295c-3.216-1.028-5.814 2.032-9.244.26c-5.192.534-5.812-6.2-8.455-8.988c-.234-4.29 1.25-8.417 2.463-12.54c.886-.992 1.63-1.81 2.059-2.47c2.334-3.3 4.604-4.53 5.76-6.254c1.202-.743 2.465-1.57 4.478-2.188c3.701.24 7.655-1.373 11.498-1.34c2.982.502-1.151 5.187 3.154 4.71c1.233.085 4.212 4.066 5.082 1.822c1.952-4.757 6.561 1.514 9.785-.344c3.395 1.846 6.1-2.769 3.655-4.64c.084 2.058-2.084 2.253-2.168.331c-2.45-1.396-5.916 3.206-8.155.293c-3.22-1.607-2.64-6.182-6.185-7.298c-.785-.494-1.195-.727-1.342-.768c-.637-.177 3.67 3.217 3.916 4.271c-1.842-.964-2.768 4.575-4.275 3.428c-2.164-1.814-1.357-2.458 1.156-2.83c1.498-.033-5.34-5.916-4.082-.55c-2.925 2.394-1-3.933.443-3.688c-3.008-.142-5.04.945-7.523 2.838c-1.042 2.085-3.052 3.516-5.235 3.683a207.49 207.49 0 0 1-1.593-.154c.1-.643-.25-1.182-1.282-1.28c.911-3.697 2.917-7.554 7.27-5.519c1.236-2.689-.806-4.02 1.885-5.24c-3.943 1.735.797-2.663-2.59-.963c-3.22-.579 3.218-3.092 3.453-4.398c4.277-1.797 1.634.412 2.115 2.81c-.039 3.274 2.711.074 4.647-.595c-.113-1.88 4.091-2.5.304-1.813c-2.66-2.556 4.421-4.252 5.54-5.828c3.731-2.17 9.334 1.973 10.75-.047c3.673.245.208-.055-.43-1.451zm-19.395.65c-1.698.601-3.434 1.092-5.168 1.588a46.663 46.663 0 0 1 5.168-1.588zm-3.57 1.854c1.476-.028 2.687.612-.215 1.42c-.617.152-1.272.323-1.902.091c-.34-1.064.969-1.49 2.117-1.511zm14.113 3.758c-.352.051-.862.35-1.556 1.021c-.141 1.78-4.603 2.426-.725 2.025c2.366 1.137 3.809-3.271 2.281-3.046zm21.49 8.728c-.87-.103-3.546 2.665-.209 3.77c3.04.926.122 5.477 4.79 4.252c.325-2.224-4.93-5.715-4.604-6.793c.401-.841.313-1.194.023-1.229zm-13.539.873c-1.394 1.267-3.422 5.047.71 3.776c1.383-1.799 9.35 1.731 6.257-1.39c-2.528-1.885-5.233-.063-6.967-2.386zM16.836 33.754c.302.045.662.35 1.105.51l-.232.718c-.38-.12-.91-.2-1.621-.238c.213-.83.454-1.034.748-.99zm58.379.508c-1.243 1.102 3.05 3.946 4.082 4.62l.603-.425c1.28-2.21-4.006-1.836-4.685-4.195zM62.678 37.29c-.102 1.847 1.911 3.514 2.736 5.342c1.312 2.636 2.846 5.938 4.703 7.236c.227.468 1.337 1.781 1.904 1.06c-1.389-1.925-1.457-4.374-3.6-5.898c-1.558-2.67-3.305-6.077-5.743-7.74zm14.586 38.904c.96.065-.26 5.288-1.729 5.998c-1.282 1.526-3.303 5.895-5.687 4.81c.203-4.353 2.936-7.372 6.379-9.91c.477-.653.815-.913 1.037-.898z" fill="#000000"></path></svg>