<svg xmlns="http://www.w3.org/2000/svg" version="1.1" xmlns:xlink="http://www.w3.org/1999/xlink" xmlns:svgjs="http://svgjs.dev/svgjs" width="1440" height="250" preserveAspectRatio="none" viewBox="0 0 1440 250"><g mask="url(&quot;#SvgjsMask1247&quot;)" fill="none"><rect width="1440" height="250" x="0" y="0" fill="#0e2a47"></rect><path d="M9 250L259 0L379 0L129 250z" fill="url(&quot;#SvgjsLinearGradient1248&quot;)"></path><path d="M246.60000000000002 250L496.6 0L628.6 0L378.6 250z" fill="url(&quot;#SvgjsLinearGradient1248&quot;)"></path><path d="M476.20000000000005 250L726.2 0L838.7 0L588.7 250z" fill="url(&quot;#SvgjsLinearGradient1248&quot;)"></path><path d="M743.8000000000001 250L993.8000000000001 0L1248.8000000000002 0L998.8000000000001 250z" fill="url(&quot;#SvgjsLinearGradient1248&quot;)"></path><path d="M1420 250L1170 0L1081.5 0L1331.5 250z" fill="url(&quot;#SvgjsLinearGradient1249&quot;)"></path><path d="M1164.4 250L914.4000000000001 0L866.4000000000001 0L1116.4 250z" fill="url(&quot;#SvgjsLinearGradient1249&quot;)"></path><path d="M919.8 250L669.8 0L626.3 0L876.3 250z" fill="url(&quot;#SvgjsLinearGradient1249&quot;)"></path><path d="M690.1999999999999 250L440.19999999999993 0L308.19999999999993 0L558.1999999999999 250z" fill="url(&quot;#SvgjsLinearGradient1249&quot;)"></path><path d="M1278.1085879155653 250L1440 88.10858791556532L1440 250z" fill="url(&quot;#SvgjsLinearGradient1248&quot;)"></path><path d="M0 250L161.89141208443468 250L 0 88.10858791556532z" fill="url(&quot;#SvgjsLinearGradient1249&quot;)"></path></g><defs><mask id="SvgjsMask1247"><rect width="1440" height="250" fill="#ffffff"></rect></mask><linearGradient x1="0%" y1="100%" x2="100%" y2="0%" id="SvgjsLinearGradient1248"><stop stop-color="rgba(15, 70, 185, 0.2)" offset="0"></stop><stop stop-opacity="0" stop-color="rgba(15, 70, 185, 0.2)" offset="0.66"></stop></linearGradient><linearGradient x1="100%" y1="100%" x2="0%" y2="0%" id="SvgjsLinearGradient1249"><stop stop-color="rgba(15, 70, 185, 0.2)" offset="0"></stop><stop stop-opacity="0" stop-color="rgba(15, 70, 185, 0.2)" offset="0.66"></stop></linearGradient></defs></svg>